<?xml version="1.0" encoding="utf-8"?>
<!-- Generator: Adobe Illustrator 27.2.0, SVG Export Plug-In . SVG Version: 6.00 Build 0)  -->
<svg version="1.1" id="Camada_1" xmlns="http://www.w3.org/2000/svg" xmlns:xlink="http://www.w3.org/1999/xlink" x="0px" y="0px"
	 viewBox="0 0 200 200" style="enable-background:new 0 0 200 200;" xml:space="preserve">
<style type="text/css">
	.st0{fill:#DD1152;}
	.st1{fill:#8950D9;}
	.st2{fill:#882297;}
	.st3{fill:#51268C;}
</style>
<g>
	<path class="st0" d="M137.2,10.6v31.2H166v39.9h21.4V10.8c0-1.6-1.3-3-3-3H140C138.6,7.8,137.2,9.1,137.2,10.6z"/>
	<path class="st0" d="M78.5,81.8H53.6c-1.5,0-2.7,1.2-2.7,2.7v57.5h27.6V81.8z"/>
	<path class="st1" d="M137.2,41.9H90.1c-1.6,0-2.9,1.3-2.9,2.9v36.9h50.1L137.2,41.9L137.2,41.9z"/>
	<polygon class="st2" points="151.1,81.8 166,81.8 166,41.8 137.2,41.8 137.2,41.9 137.2,81.8 	"/>
	<path class="st1" d="M78.5,172.2v-5.2H50.9v-24.9H37.2H15.6c-1.6,0-2.9,1.3-2.9,2.9v44.1c0,1.6,1.3,2.9,2.9,2.9h21.7v0.1h41.3v-8.6
		v-11.3H78.5z"/>
	<polygon class="st2" points="78.5,167.1 78.5,142.1 50.9,142.1 50.9,142.1 50.9,167.1 	"/>
	<polygon class="st2" points="166,118.8 151.1,118.8 137.2,118.8 87.2,118.8 87.2,81.8 78.5,81.8 78.5,142.1 137.2,142.1 
		151.1,142.1 187.4,142.1 187.4,81.8 187.4,81.8 166,81.8 	"/>
	<polygon class="st3" points="137.2,118.8 151.1,118.8 166,118.8 166,81.8 151.1,81.8 137.2,81.8 87.2,81.8 87.2,81.8 87.2,118.8 	
		"/>
	<path class="st3" d="M151.1,142.1h-13.8H78.5v25v5.2v11.3v8.6h58.8h41.6c4.7,0,8.5-3.8,8.5-8.5l0,0v-0.1v-41.4V142L151.1,142.1
		L151.1,142.1z"/>
</g>
</svg>
