<?xml version="1.0" encoding="utf-8"?>
<!-- Generator: Adobe Illustrator 27.2.0, SVG Export Plug-In . SVG Version: 6.00 Build 0)  -->
<svg version="1.1" id="Camada_1" xmlns="http://www.w3.org/2000/svg" xmlns:xlink="http://www.w3.org/1999/xlink" x="0px" y="0px"
	 viewBox="0 0 987 228.6" style="enable-background:new 0 0 987 228.6;" xml:space="preserve">
<style type="text/css">
	.st0{fill:#DD1152;}
	.st1{fill:#8950D9;}
	.st2{fill:#882297;}
	.st3{fill:#51268C;}
	.st4{fill:#131313;}
</style>
<g>
	<path class="st0" d="M141,23.9v31.2h28.7V95h21.4V24.1c0-1.6-1.3-3-3-3h-44.3C142.3,21.1,141,22.4,141,23.9z"/>
	<path class="st0" d="M82.2,95.1H57.3c-1.5,0-2.7,1.2-2.7,2.7v57.5h27.6V95.1z"/>
	<path class="st1" d="M141,55.2H93.8c-1.6,0-2.9,1.3-2.9,2.9V95H141L141,55.2L141,55.2z"/>
	<polygon class="st2" points="154.8,95 169.7,95 169.7,55.1 141,55.1 141,55.2 141,95 	"/>
	<path class="st1" d="M82.2,185.5v-5.2H54.6v-24.9H40.9H19.3c-1.6,0-2.9,1.3-2.9,2.9v44.1c0,1.6,1.3,2.9,2.9,2.9H41v0.1h41.3v-8.6
		v-11.3H82.2z"/>
	<polygon class="st2" points="82.2,180.3 82.2,155.3 54.6,155.3 54.6,155.4 54.6,180.3 	"/>
	<polygon class="st2" points="169.7,132 154.8,132 141,132 90.9,132 90.9,95.1 82.2,95.1 82.2,155.3 141,155.3 154.8,155.3 
		191.1,155.3 191.1,95.1 191.1,95 169.7,95 	"/>
	<polygon class="st3" points="141,132 154.8,132 169.7,132 169.7,95 154.8,95 141,95 90.9,95 90.9,95.1 90.9,132 	"/>
	<path class="st3" d="M154.8,155.3H141H82.2v25v5.2v11.3v8.6H141h41.6c4.7,0,8.5-3.8,8.5-8.5l0,0v-0.1v-41.4v-0.1L154.8,155.3
		L154.8,155.3z"/>
</g>
<g>
	<polygon class="st4" points="404.5,18.5 350.4,18.5 290.9,101 290.9,18.5 244.2,18.5 244.2,204.3 290.9,204.3 290.9,141.5 
		300,128.8 350.7,204.3 407.2,204.3 338.1,104.7 	"/>
	<polygon class="st4" points="483.8,18.5 436.8,18.5 436.8,204.3 561.8,204.3 561.8,204.3 561.8,204.1 561.8,168.9 561.8,162.5 
		483.8,162.5 	"/>
	<polygon class="st4" points="880.2,19.4 880.2,125.9 817,19.4 756,19.4 756,205.3 801.5,205.3 801.5,75.7 877.8,205.3 925.6,205.3 
		925.6,19.4 	"/>
	<path class="st4" d="M690.7,101.1L665,91.6c-17.6-6.4-30.8-10.5-30.8-21.7c0-10.5,10-16.5,25.7-16.5c15.9,0,28.5,5.1,41.8,14.4
		l23-26.2c-17.3-15.7-41.6-24.1-64.8-24.1c-41.9,0-71.7,24.3-71.7,54.7c0,26.7,19.8,42.3,40.6,50l26.2,10.2
		c17.6,6.6,29,10.3,29,21.9c0,10.9-9.3,17.7-28.3,17.7c-16.6,0-35.2-7.8-49.5-19.2L580,181.3c20.5,17.5,48.4,26.5,74.6,26.5
		c48,0,75.9-26.4,75.9-56.9C730.7,125.1,715.3,110.2,690.7,101.1z"/>
</g>
<g>
	<path d="M959.2,20c4.4,0,8.2,1.6,11.4,4.7c3.1,3.1,4.7,6.9,4.7,11.3s-1.6,8.2-4.7,11.4c-3.1,3.1-6.9,4.7-11.4,4.7
		c-4.4,0-8.2-1.6-11.4-4.7c-3.1-3.1-4.7-7-4.7-11.4s1.5-8.2,4.7-11.3C950.9,21.5,954.7,20,959.2,20z M959.2,49.2
		c3.7,0,6.7-1.3,9.4-3.8c2.6-2.6,3.9-5.7,3.9-9.3c0-3.6-1.3-6.7-3.9-9.3s-5.7-3.8-9.4-3.8c-3.6,0-6.7,1.3-9.3,3.8s-3.8,5.7-3.8,9.3
		c0,3.7,1.3,6.7,3.8,9.4C952.5,47.9,955.5,49.2,959.2,49.2z M967.4,44.6h-3.8l-4.5-6.9H957v6.9h-3.4V27.3h5.4c1.8,0,3.3,0.5,4.5,1.4
		s1.8,2.2,1.8,3.7c0,2.2-1.1,3.7-3.3,4.6L967.4,44.6z M957,35h1.8c2.2,0,3.3-0.8,3.3-2.5c0-1.6-1.1-2.4-3.1-2.4h-2L957,35L957,35z"
		/>
</g>
</svg>
